<mxfile host="app.diagrams.net" modified="2024-06-16T13:16:53.953Z" agent="Mozilla/5.0 (Windows NT 10.0; Win64; x64) AppleWebKit/537.36 (KHTML, like Gecko) Chrome/125.0.0.0 Safari/537.36" etag="f2VWdan0n3tuRCEaKQ4W" version="24.5.4" type="device">
  <diagram name="Page-1" id="BnLCxGOh8eih68MSi4O7">
    <mxGraphModel dx="954" dy="592" grid="1" gridSize="10" guides="1" tooltips="1" connect="1" arrows="1" fold="1" page="1" pageScale="1" pageWidth="827" pageHeight="1169" math="0" shadow="0">
      <root>
        <mxCell id="0" />
        <mxCell id="1" parent="0" />
        <mxCell id="_K0QVgzOKVAXejQVFmRV-19" value="" style="edgeStyle=orthogonalEdgeStyle;rounded=0;orthogonalLoop=1;jettySize=auto;html=1;" edge="1" parent="1" source="_K0QVgzOKVAXejQVFmRV-16" target="_K0QVgzOKVAXejQVFmRV-18">
          <mxGeometry relative="1" as="geometry" />
        </mxCell>
        <mxCell id="_K0QVgzOKVAXejQVFmRV-16" value="Proxy Server" style="swimlane;whiteSpace=wrap;html=1;" vertex="1" parent="1">
          <mxGeometry x="40" y="20" width="355" height="280" as="geometry" />
        </mxCell>
        <mxCell id="_K0QVgzOKVAXejQVFmRV-17" value="&lt;font style=&quot;font-size: 21px;&quot;&gt;That has IP of its own&lt;/font&gt;&lt;div style=&quot;font-size: 21px;&quot;&gt;&lt;font style=&quot;font-size: 21px;&quot;&gt;&lt;br&gt;&lt;/font&gt;&lt;/div&gt;&lt;div style=&quot;font-size: 21px;&quot;&gt;&lt;font style=&quot;font-size: 21px;&quot;&gt;Access to location Specific Content&lt;/font&gt;&lt;/div&gt;&lt;div style=&quot;font-size: 21px;&quot;&gt;&lt;br&gt;&lt;/div&gt;&lt;div style=&quot;font-size: 21px;&quot;&gt;Enhanced Security&lt;/div&gt;&lt;div style=&quot;font-size: 21px;&quot;&gt;&lt;br&gt;&lt;/div&gt;&lt;div style=&quot;font-size: 21px;&quot;&gt;Block Websites that don&#39;t&amp;nbsp;&lt;/div&gt;&lt;div style=&quot;font-size: 21px;&quot;&gt;adhere to Organization&#39;s principles&lt;/div&gt;&lt;div style=&quot;font-size: 21px;&quot;&gt;&lt;font style=&quot;font-size: 21px;&quot;&gt;&lt;br&gt;&lt;/font&gt;&lt;/div&gt;&lt;div style=&quot;font-size: 21px;&quot;&gt;&lt;br&gt;&lt;/div&gt;" style="text;html=1;align=center;verticalAlign=middle;whiteSpace=wrap;rounded=0;" vertex="1" parent="_K0QVgzOKVAXejQVFmRV-16">
          <mxGeometry x="-25" y="30" width="380" height="250" as="geometry" />
        </mxCell>
        <mxCell id="_K0QVgzOKVAXejQVFmRV-21" value="" style="edgeStyle=orthogonalEdgeStyle;rounded=0;orthogonalLoop=1;jettySize=auto;html=1;" edge="1" parent="1" source="_K0QVgzOKVAXejQVFmRV-18" target="_K0QVgzOKVAXejQVFmRV-20">
          <mxGeometry relative="1" as="geometry" />
        </mxCell>
        <mxCell id="_K0QVgzOKVAXejQVFmRV-25" value="" style="edgeStyle=orthogonalEdgeStyle;rounded=0;orthogonalLoop=1;jettySize=auto;html=1;" edge="1" parent="1" source="_K0QVgzOKVAXejQVFmRV-18" target="_K0QVgzOKVAXejQVFmRV-24">
          <mxGeometry relative="1" as="geometry" />
        </mxCell>
        <mxCell id="_K0QVgzOKVAXejQVFmRV-27" value="" style="edgeStyle=orthogonalEdgeStyle;rounded=0;orthogonalLoop=1;jettySize=auto;html=1;" edge="1" parent="1" source="_K0QVgzOKVAXejQVFmRV-18" target="_K0QVgzOKVAXejQVFmRV-26">
          <mxGeometry relative="1" as="geometry" />
        </mxCell>
        <mxCell id="_K0QVgzOKVAXejQVFmRV-32" style="edgeStyle=orthogonalEdgeStyle;rounded=0;orthogonalLoop=1;jettySize=auto;html=1;" edge="1" parent="1" source="_K0QVgzOKVAXejQVFmRV-18" target="_K0QVgzOKVAXejQVFmRV-31">
          <mxGeometry relative="1" as="geometry" />
        </mxCell>
        <mxCell id="_K0QVgzOKVAXejQVFmRV-18" value="Types of proxy&lt;div&gt;Servers&lt;/div&gt;" style="whiteSpace=wrap;html=1;fontStyle=1;startSize=23;fillColor=#d5e8d4;strokeColor=#82b366;" vertex="1" parent="1">
          <mxGeometry x="430" y="130" width="120" height="60" as="geometry" />
        </mxCell>
        <mxCell id="_K0QVgzOKVAXejQVFmRV-20" value="Forward Proxy" style="whiteSpace=wrap;html=1;fontStyle=1;startSize=23;fillColor=#d5e8d4;strokeColor=#82b366;" vertex="1" parent="1">
          <mxGeometry x="570" y="40" width="120" height="60" as="geometry" />
        </mxCell>
        <mxCell id="_K0QVgzOKVAXejQVFmRV-22" value="Reverse Proxy" style="whiteSpace=wrap;html=1;fontStyle=1;startSize=23;fillColor=#d5e8d4;strokeColor=#82b366;" vertex="1" parent="1">
          <mxGeometry x="590" y="250" width="120" height="60" as="geometry" />
        </mxCell>
        <mxCell id="_K0QVgzOKVAXejQVFmRV-24" value="SSL Proxy&lt;div&gt;(content can&#39;t be&amp;nbsp;&lt;/div&gt;&lt;div&gt;cached -&amp;gt; slower&lt;/div&gt;&lt;div&gt;load times)&lt;/div&gt;" style="whiteSpace=wrap;html=1;fillColor=#d5e8d4;strokeColor=#82b366;fontStyle=1;startSize=23;" vertex="1" parent="1">
          <mxGeometry x="430" y="40" width="120" height="60" as="geometry" />
        </mxCell>
        <mxCell id="_K0QVgzOKVAXejQVFmRV-26" value="Rotating Proxy&lt;div&gt;(different IP to different users)&lt;/div&gt;" style="whiteSpace=wrap;html=1;fillColor=#d5e8d4;strokeColor=#82b366;fontStyle=1;startSize=23;" vertex="1" parent="1">
          <mxGeometry x="430" y="210" width="120" height="60" as="geometry" />
        </mxCell>
        <mxCell id="_K0QVgzOKVAXejQVFmRV-23" value="" style="edgeStyle=orthogonalEdgeStyle;rounded=0;orthogonalLoop=1;jettySize=auto;html=1;" edge="1" parent="1" source="_K0QVgzOKVAXejQVFmRV-18" target="_K0QVgzOKVAXejQVFmRV-22">
          <mxGeometry relative="1" as="geometry" />
        </mxCell>
        <mxCell id="_K0QVgzOKVAXejQVFmRV-31" value="&lt;b&gt;Shared Proxy&lt;/b&gt;&lt;div&gt;&lt;b&gt;(one ip for multiple&lt;/b&gt;&lt;/div&gt;&lt;div&gt;&lt;b&gt;users)&lt;/b&gt;&lt;/div&gt;" style="rounded=0;whiteSpace=wrap;html=1;fillColor=#d5e8d4;strokeColor=#82b366;" vertex="1" parent="1">
          <mxGeometry x="690" y="140" width="120" height="60" as="geometry" />
        </mxCell>
      </root>
    </mxGraphModel>
  </diagram>
</mxfile>
